# xmcd CD database file
#
# Track frame offsets:
#	150
#	18258
#	32596
#	49420
#	66368
#	79708
#	97766
#	112580
#	125868
#	140941
#	155248
#	173139
#	186970
#	203955
#	221755
#	237648
#	251586
#	266340
#	280953
#	297832
#	311284
#	327305
#
# Disc length: 4512 seconds
#
# Revision: 0
# Processed by: cddbd v1.5.2PL0 Copyright (c) Steve Scherf et al.
# Submitted via: CDex 1.70beta2
#
DISCID=4e119e16
DTITLE=Various Artist - Hit Country 2011
DYEAR=2010
DGENRE=Country
TTITLE0=Tim McGraw - Southern Voice
TTITLE1=Lee Kernaghan - Australian Boy
TTITLE2=McAlister Kemp - Hell Yeah
TTITLE3=Kenny Chesney - Ain't Back Yet
TTITLE4=Carrie Underwood - Undo It
TTITLE5=Doc Walker - If I Fall
TTITLE6=Sara Storer - Calling Me Home
TTITLE7=Catherin Britt - Can't Change A Thing
TTITLE8=Adam Harvey - Better Than This
TTITLE9=Peter McWhirter - I Will Stand By You
TTITLE10=Steve Forde - Hurricane
TTITLE11=Joe Nichols - Gimme That Girl
TTITLE12=Miranda Lambert - White Liar
TTITLE13=Gary - Allan - Today
TTITLE14=The McClymonts - Hearts on Fire
TTITLE15=Shea Fisher - Getaway Heart
TTITLE16=Jasmin Rae - Can't A Girl Change Her Mind
TTITLE17=Troy Cassar-Daley - Chasin' Rodeo
TTITLE18=Emerson Drive - I Love This Road
TTITLE19=The Band Perry - Hip To My Heard
TTITLE20=Train - Hey soul Sister
TTITLE21=Dianna Corcoran - Thank You For Cheating On Me
EXTD=YEAR: 2010
EXTT0=
EXTT1=
EXTT2=
EXTT3=
EXTT4=
EXTT5=
EXTT6=
EXTT7=
EXTT8=
EXTT9=
EXTT10=
EXTT11=
EXTT12=
EXTT13=
EXTT14=
EXTT15=
EXTT16=
EXTT17=
EXTT18=
EXTT19=
EXTT20=
EXTT21=
PLAYORDER=
